<svg width="1077.9878" height="858.57588" xmlns="http://www.w3.org/2000/svg" xmlns:xlink="http://www.w3.org/1999/xlink" data-name="Layer 1">
 <defs>
  <linearGradient y2="0" x2="0.49969" y1="1" x1="0.49969" id="a3072216-105c-45a4-9275-075801c67428">
   <stop stop-opacity="0.25" stop-color="gray" offset="0"/>
   <stop stop-opacity="0.12" stop-color="gray" offset="0.53514"/>
   <stop stop-opacity="0.1" stop-color="gray" offset="1"/>
  </linearGradient>
  <linearGradient xlink:href="#a3072216-105c-45a4-9275-075801c67428" y2="378.37738" x2="303.23261" y1="379.74827" x1="303.23261" id="befed860-b9c8-44f5-94de-299c2a82c033"/>
  <linearGradient xlink:href="#a3072216-105c-45a4-9275-075801c67428" y2="531.19569" x2="355.14017" y1="565.28519" x1="355.14017" id="a60fe5fe-a301-4ace-9170-4c1f953493ad"/>
  <linearGradient xlink:href="#a3072216-105c-45a4-9275-075801c67428" y2="444.0831" x2="266.10221" y1="444.0831" x1="266.10221" id="f2c8c104-c6d4-4b69-b7f1-f42200d68d9c"/>
 </defs>
 <title>Beach</title>
 <g>
  <title>Layer 1</title>
  <path id="svg_1" opacity="0.1" fill="#fad02c"/>
  <path stroke="null" id="svg_2" fill="#ffff00" d="m193.655,443.96122s86,16 148,-68c0,0 -107,-138 -88,-40s-60,76 -60,76l0,32z"/>
  <path stroke-width="99" stroke-dasharray="2,2" fill="#ffff00" id="svg_3" opacity="0.1" d="m170.655,440.96122s-170.655,-440.96122 174,-55c-47,-172 -78,-64 -114,-53s-60,76 -60,76l0,32z"/>
  <polygon id="svg_4" fill="#504f60" points="211.655 374.961 299.655 555.961 320.655 544.961 229.655 374.961 211.655 374.961"/>
  <path id="svg_5" fill="#fad02c" d="m341.655,373.96122a194.98027,194.98027 0 0 0 -47.22,6.29a204.3527,204.3527 0 0 0 -59.92,26.7c-26.61,17.33 -40.86,35.01 -40.86,35.01c-63.45,-111.52 -49.26,-312.7 -48.07,-328.07l0,-0.01c0.02,-0.24 0.03,-0.44 0.04,-0.58c0.02,-0.23 0.03,-0.34 0.03,-0.34c42,0 196,261 196,261z"/>
  <path id="svg_6" fill="#eed1d7" d="m1076.12497,591.7512l-97.47,26.21s-150,3 -202,48s-203,40 -207,40s-60,-49 -162,2s-224,19 -224,19s-127,53 -163,35s-14,-42 -14,-42s74,-57 17,-120s10,-63 10,-63l192.79,0a95.77128,95.77128 0 0 0 45.21,-10.87c15.06,-8.05 32.78,-5.48 44.64,-2.09a71.38356,71.38356 0 0 0 31.54,1.7c96.77,-16.41 158.52,-11.71 184.18,-8.13a142.99163,142.99163 0 0 0 32.23,0.79c32.7,-2.85 100.56,-8.9 137.41,-13.28c10.14,-1.2 17.93,-2.27 22,-3.12c11.4,-2.38 65.22,8.11 119.66,22.14c60.16,15.49 121.09,35.31 126.34,46.86c7.24,15.92 71.05005,16.65 105.76,15.84a2.519,2.519 0 0 1 0.71,4.95z"/>
  <path id="svg_7" fill="#ccb2bb" d="m696.655,664.96122l-24,5s-95,-51 -108,-34"/>
  <path id="svg_8" fill="#ccb2bb" d="m672.655,518.96122s-154,-31 -218,6"/>
  <path id="svg_9" opacity="0.1" d="m556.78537,574.66801s-38.50208,-15.73808 -36.81586,-6.74489s21.35882,17.98638 21.35882,17.98638s-38.78312,-3.37245 -37.0969,10.11733c0,0 44.40387,-1.12414 42.71764,8.99319s0,23.60712 7.307,20.79675s11.80356,-35.41068 31.47616,-19.6726s16.86222,-16.30015 -7.307,-19.11052c0,0 12.92771,-9.55527 11.80356,-14.05186s-33.44342,1.68622 -33.44342,1.68622z"/>
  <path id="svg_10" fill="#f89898" d="m556.2233,572.98179s-38.50209,-15.73808 -36.81587,-6.74489s21.35883,17.98637 21.35883,17.98637s-38.78313,-3.37244 -37.0969,10.11734c0,0 44.40386,-1.12415 42.71764,8.99319s0,23.60712 7.307,20.79675s11.80356,-35.41068 31.47616,-19.6726s16.86223,-16.30016 -7.307,-19.11053c0,0 12.92771,-9.55526 11.80356,-14.05185s-33.44342,1.68622 -33.44342,1.68622z"/>
  <path id="svg_11" fill="#ccb2bb" d="m855.655,603.96122s-55,-17 -60,-14"/>
  <path id="svg_12" fill="#ccb2bb" d="m428.655,618.96122s74,-21 102,-5"/>
  <path id="svg_13" fill="#eed1d7" d="m551.155,533.46122s20,-59 60,-47s70,43 70,43l-130,10l0,-6z"/>
  <path id="svg_14" fill="#ccb2bb" d="m116.155,599.46122s31,13 83,8s93,26 93,26"/>
  <g id="svg_15" opacity="0.05">
   <path id="svg_16" fill="url(#a3072216-105c-45a4-9275-075801c67428)" d="m242.06016,359.72461a2.35451,2.35451 0 0 0 0.32721,-1.37088a8.5654,8.5654 0 0 0 -0.32721,1.37088z"/>
  </g>
  <g id="svg_17" opacity="0.05">
   <path id="svg_18" fill="url(#befed860-b9c8-44f5-94de-299c2a82c033)" d="m242.06016,359.03621a2.35447,2.35447 0 0 0 0.32721,-1.37089a8.56654,8.56654 0 0 0 -0.32721,1.37089z"/>
  </g>
  <g id="svg_19" opacity="0.05">
   <path id="svg_20" fill="url(#a60fe5fe-a301-4ace-9170-4c1f953493ad)" d="m301.16551,531.8031c-2.16765,0.928 -7.33035,5.79178 -14.02816,12.77c-2.12663,-14.00611 -3.5048,-26.63792 -2.61346,-31.89084a4.72844,4.72844 0 0 1 0.79051,-2.19315c4.01935,-0.27468 12.18275,9.7749 18.70523,18.85937c-1.80613,1.44698 -2.85412,2.45462 -2.85412,2.45462z"/>
  </g>
  <g id="svg_21" opacity="0.05">
   <polygon id="svg_22" fill="url(#f2c8c104-c6d4-4b69-b7f1-f42200d68d9c)" points="266.102 444.083 266.102 444.083 266.102 444.083 266.102 444.083"/>
  </g>
  <path id="svg_23" fill="#ef91a3" d="m408.02643,593.10806s35.04831,69.42261 43.81039,72.11864s14.82813,-1.348 14.82813,-1.348s72.79265,-13.48012 59.31253,2.022s-131.43117,6.06606 -131.43117,6.06606l-29.65626,-66.72659l43.13638,-12.13211z"/>
  <path id="svg_24" opacity="0.1" d="m307.59954,594.45607s56.61651,-37.74433 72.11864,-37.74433c0,0 22.91621,-7.41407 36.39632,43.81039c0,0 -46.50641,8.08807 -45.8324,30.33026l-8.76208,-18.87216l-37.74433,41.78837l-45.83241,-31.00428l29.65626,-28.30825z"/>
  <path id="svg_25" fill="#333333" d="m307.59954,593.10806s56.61651,-37.74433 72.11864,-37.74433c0,0 22.91621,-7.41407 36.39632,43.81038c0,0 -46.50641,8.08808 -45.8324,30.33027l-8.76208,-18.87216l-37.74433,41.78837l-45.83241,-31.00428l29.65626,-28.30825z"/>
  <path id="svg_26" fill="#ef91a3" d="m369.60809,574.23594c-3.37,16.17615 -20.89418,18.87217 -20.89418,18.87217l-24.93822,-15.50217s-3.51829,-23.21951 -6.49068,-37.37363c-1.13907,-5.43924 -2.19727,-9.54391 -2.94541,-10.48079c-2.696,-3.37 39.76636,-2.696 39.76636,-2.696a167.01,167.01 0 0 1 8.12851,15.54932c4.62367,10.11675 9.17321,22.99029 7.37362,31.6311z"/>
  <path id="svg_27" fill="#ef91a3" d="m261.76714,452.24082l-14.15413,67.40059l-34.3743,-8.76208s-31.67828,-24.93822 -22.2422,-40.44035c3.087,-5.06854 4.65737,-12.44217 5.37856,-20.06517c1.47607,-15.71108 -0.66051,-32.5073 -0.66051,-32.5073s37.74433,-10.11009 30.33026,17.52416c-3.04652,11.35023 2.43316,16.21658 9.94834,18.01616c10.79084,2.58146 25.77398,-1.16601 25.77398,-1.16601z"/>
  <path id="svg_28" opacity="0.1" d="m235.99316,453.40683a37.51356,37.51356 0 0 1 -17.3624,4.226c-8.324,0 -16.3379,-5.21005 -22.5792,-9.77308a153.96287,153.96287 0 0 0 -0.337,-29.99327s37.74433,-10.11009 30.33026,17.52416c-3.04652,11.3503 2.43316,16.21661 9.94834,18.01619z"/>
  <circle id="svg_29" fill="#ef91a3" r="37.74433" cy="418.54052" cx="218.63076"/>
  <path id="svg_30" opacity="0.1" d="m215.80877,497.27674l10.23605,14.2766l5.82446,-21.11365a105.063,105.063 0 0 0 3.53148,-25.88378a17.7766,17.7766 0 0 1 3.45018,-10.29308c10.50326,-5.72905 18.30113,-8.75271 31.538,-7.39422a71.176,71.176 0 0 1 35.9831,14.58193c39.34291,30.2157 57.844,80.43307 57.844,80.43307s-53.92048,-10.7841 -51.22446,1.348c0,0 -23.59021,-37.74433 -28.98225,-31.67828s11.4581,86.27276 11.4581,86.27276l-110.537,8.08807l-28.98223,-76.83667l1.348,-57.2905s28.64525,-13.14312 34.7113,-13.14312c2.12312,0 1.799,-0.73871 2.696,2.696c3.4574,13.23846 13.13267,24.81719 21.10527,35.93687z"/>
  <path id="svg_31" opacity="0.1" d="m362.23447,542.6048c-9.37541,-1.69176 -35.93126,-6.01216 -44.94946,-2.37251c-1.13907,-5.43924 -2.19727,-9.54391 -2.94541,-10.48079c-2.696,-3.37 39.76636,-2.696 39.76636,-2.696a167.01,167.01 0 0 1 8.12851,15.5493z"/>
  <path id="svg_32" fill="#dfecfb" d="m217.15678,496.60273l10.23606,14.2766l5.82445,-21.11365a105.06292,105.06292 0 0 0 3.53148,-25.88378a17.77674,17.77674 0 0 1 3.45018,-10.29307c10.50326,-5.729 18.30113,-8.75272 31.538,-7.39422a71.17589,71.17589 0 0 1 35.9831,14.58193c39.34291,30.2157 57.844,80.43306 57.844,80.43306s-53.92048,-10.78409 -51.22446,1.348c0,0 -23.5902,-37.74433 -28.98225,-31.67828s11.4581,86.27277 11.4581,86.27277l-110.537,8.08807l-28.98225,-76.83668l1.348,-57.29051s28.64525,-13.14311 34.7113,-13.14311c2.12312,0 1.799,-0.73871 2.696,2.696c3.45741,13.23847 13.13269,24.8172 21.10529,35.93687z"/>
  <path id="svg_33" opacity="0.1" d="m192.42623,445.20541c-3.78769,0.6754 -8.19885,-0.60272 -10.04554,-3.978a21.91428,21.91428 0 0 1 -1.54053,-5.24015c-1.95736,-7.6778 -8.35932,-13.41221 -11.512,-20.68136c-5.31088,-12.24529 -0.648,-26.29442 4.02621,-38.79657c2.29687,-6.14342 4.76518,-12.54322 9.66723,-16.90064c7.53347,-6.69647 18.76614,-6.8559 28.75911,-5.53813c4.04852,0.53387 8.119,1.2506 12.18985,0.92841s8.24,-1.83235 10.81644,-5.00052c2.16967,1.40841 1.36652,4.66551 0.92449,7.21419c-0.43613,2.51466 -0.07641,5.46048 1.95252,7.00877s5.815,0.27273 5.64526,-2.27382c-1.8247,5.39835 2.20354,11.366 7.39229,13.72151a20.62644,20.62644 0 0 0 5.40585,1.56145a13.00038,13.00038 0 0 1 11.15077,13.05727l-0.00122,0.05773a3.51732,3.51732 0 0 1 -0.45359,2.01479a3.76864,3.76864 0 0 1 -1.60153,1.06424a25.70886,25.70886 0 0 0 -12.15311,11.59828c-1.39647,2.73008 -2.44833,5.893 -5.02383,7.55741c-3.16564,2.04579 -7.30836,1.02718 -11.06635,1.31711a15.7056,15.7056 0 0 0 -13.55725,11.13283c-0.87329,3.12191 -0.75682,6.52235 -2.70989,9.29692a5.30389,5.30389 0 0 1 -3.68826,2.32481c-2.92268,0.31668 -4.26739,-2.30534 -6.3645,-3.65815c-4.93027,-3.18045 -8.07463,1.01832 -9.63178,4.97854c-1.71085,4.35115 -2.90527,6.22108 -8.58064,7.23308z"/>
  <path id="svg_34" fill="#333333" d="m192.42623,444.53141c-3.78769,0.67539 -8.19885,-0.60273 -10.04554,-3.978a21.91406,21.91406 0 0 1 -1.54053,-5.24014c-1.95736,-7.6778 -8.35932,-13.41222 -11.512,-20.68136c-5.31088,-12.2453 -0.648,-26.29442 4.02621,-38.79658c2.29687,-6.14341 4.76518,-12.54322 9.66723,-16.90063c7.53347,-6.69648 18.76614,-6.8559 28.75911,-5.53814c4.04852,0.53387 8.119,1.25061 12.18985,0.92841s8.24,-1.83234 10.81644,-5.00052c2.16967,1.40841 1.36652,4.66552 0.92449,7.21419c-0.43613,2.51466 -0.07641,5.46049 1.95252,7.00877s5.815,0.27273 5.64526,-2.27382c-1.8247,5.39835 2.20354,11.366 7.39229,13.72152a20.6268,20.6268 0 0 0 5.40585,1.56144a13.00038,13.00038 0 0 1 11.15077,13.05728l-0.00122,0.05772a3.51732,3.51732 0 0 1 -0.45359,2.01479a3.76866,3.76866 0 0 1 -1.60153,1.06425a25.70884,25.70884 0 0 0 -12.15311,11.59827c-1.39647,2.73008 -2.44833,5.893 -5.02383,7.55741c-3.16564,2.04579 -7.30836,1.02719 -11.06635,1.31712a15.7056,15.7056 0 0 0 -13.55725,11.13283c-0.87329,3.12191 -0.75682,6.52234 -2.70989,9.29691a5.30391,5.30391 0 0 1 -3.68826,2.32482c-2.92268,0.31667 -4.26739,-2.30535 -6.3645,-3.65816c-4.93027,-3.18044 -8.07463,1.01832 -9.63178,4.97855c-1.71085,4.35113 -2.90527,6.22106 -8.58064,7.23307z"/>
  <g id="svg_35" opacity="0.05">
   <path id="svg_36" d="m299.6319,460.1025c36.38867,27.94682 54.946,72.99912 57.528,79.6082c5.0244,0.823 8.40414,1.4989 8.40414,1.4989s-18.50114,-50.21739 -57.84404,-80.43309a71.176,71.176 0 0 0 -35.9831,-14.58192c-1.83636,-0.18845 -3.55956,-0.28431 -5.20829,-0.30858a71.54846,71.54846 0 0 1 33.10329,14.21649z"/>
   <path id="svg_37" d="m187.96349,459.99188c3.45736,13.23844 13.13262,24.81715 21.10522,35.93685l10.236,14.2766l2.113,-7.65966l-4.261,-5.94293c-7.9726,-11.1197 -17.64786,-22.69842 -21.10522,-35.93685c-0.897,-3.43474 -0.57289,-2.696 -2.696,-2.696a22.38134,22.38134 0 0 0 -5.59095,1.25606c0.06002,0.23139 0.12408,0.47924 0.19895,0.76593z"/>
   <path id="svg_38" d="m310.75208,537.0296c2.18965,3.29208 3.58752,5.528 3.58752,5.528c-1.17617,-5.29278 8.42356,-6.22361 19.62035,-5.59152c-8.78454,-0.933 -17.90444,-1.33426 -23.20787,0.06352z"/>
   <path id="svg_39" d="m284.56552,513.05212c-3.18651,-2.99781 -5.87439,-4.4464 -7.29624,-2.84679c-5.392,6.06605 11.4581,86.27276 11.4581,86.27276l-102.91348,7.53024l0.46461,1.23184l110.537,-8.08807s-14.67043,-69.83527 -12.24999,-84.09998z"/>
  </g>
  <path id="svg_40" fill="#ef91a3" d="m182.4299,673.51022c-6.45024,5.33811 -24.763,18.13077 -47.37586,13.28467c-22.53876,-4.83265 -3.6329,-15.63695 5.00786,-19.84948a3.37818,3.37818 0 0 0 1.15256,-5.16287a93.8965,93.8965 0 0 0 -16.94452,-16.102c-5.49316,-4.044 -12.10516,-11.3233 -17.86115,-18.31278l0,-0.0067c-3.02628,-3.65985 -5.80319,-7.23211 -8.06784,-10.23141a3.38455,3.38455 0 0 1 3.59243,-5.30446l44.18783,11.99734a3.36633,3.36633 0 0 1 1.75244,1.15252l14.52482,18.151l20.52343,25.65263a3.38672,3.38672 0 0 1 -0.492,4.73154z"/>
  <path id="svg_41" opacity="0.1" d="m162.39845,643.12602c-36.87489,-26.89282 -50.79308,-22.08715 -55.98968,-15.765c-3.02628,-3.65985 -5.80319,-7.23211 -8.06784,-10.23141a3.38455,3.38455 0 0 1 3.59243,-5.30446l44.18783,11.99734a3.36633,3.36633 0 0 1 1.75244,1.15252l14.52482,18.15101z"/>
  <path id="svg_42" fill="#000333" d="m131.68399,560.08177s-59.31253,-19.54617 -49.87644,21.56819s21.56819,51.22445 21.56819,51.22445s3.37,-32.35228 60.66054,10.11009l-20.22018,-32.35228l23.5902,-29.65628l-35.72231,-20.89417z"/>
  <path id="svg_43" opacity="0.1" d="m117.5299,523.01144s-5.392,28.30825 14.15413,62.68256c15.49481,27.2495 -2.895,39.67446 -11.18407,43.65446a5.84291,5.84291 0 0 1 -6.63995,-1.11358c-5.46038,-5.402 -15.92908,-19.10288 -9.81023,-40.51887l4.044,-10.78409l-22.2422,-16.17615s-6.01761,-22.31968 -3.34581,-27.336s24.24,-18.49642 24.24,-18.49642l10.78413,8.08809z"/>
  <path id="svg_44" fill="#ef91a3" d="m117.5299,521.66343s-5.392,28.30825 14.15413,62.68255c15.49481,27.24951 -2.895,39.67447 -11.18407,43.65447a5.8429,5.8429 0 0 1 -6.63995,-1.11359c-5.46038,-5.402 -15.92908,-19.10288 -9.81023,-40.51886l4.044,-10.78409l-22.2422,-16.17615s-6.01761,-22.31968 -3.34581,-27.336s24.24,-18.49642 24.24,-18.49642l10.78413,8.08809z"/>
  <path id="svg_45" fill="#dfecfb" d="m166.7323,467.74294s-48.5284,27.63426 -68.74861,45.83242s-16.17614,24.26421 -16.17614,24.26421s19.54617,-36.39632 36.39632,-4.718c0,0 47.18042,-34.3743 59.98653,-19.54617s-11.4581,-45.83246 -11.4581,-45.83246z"/>
  <polygon id="svg_46" fill="#5d526e" points="148.534 626.808 188.974 618.72 184.256 639.614 154.95 636.563 148.534 626.808"/>
  <path id="svg_47" fill="#ffc1cd" d="m218.63076,537.83957l-1.348,14.82813l-48.52843,-8.08807l-14.82813,-9.43608l-22.2422,-8.08807a38.71,38.71 0 0 0 1.17951,-22.53876a34.21448,34.21448 0 0 0 -3.87553,-9.13952c-9.43609,-15.50214 39.76635,-8.76208 39.76635,-8.76208a65.06764,65.06764 0 0 0 -0.74139,10.56166c0.10107,11.26266 3.28915,27.13549 20.96157,24.48665l14.82813,8.76208l14.82812,7.41406z"/>
  <path id="svg_48" fill="#ffc1cd" d="m170.77633,516.94539s24.93823,-10.7841 37.07033,11.4581s17.52416,20.89418 17.52416,20.89418l-24.26422,-15.50213l-30.33027,-16.85015z"/>
  <path id="svg_49" fill="#333333" d="m191.67052,629.50438s-18.87217,15.50214 -8.08807,35.04831s78.18469,16.17615 78.18469,16.17615s-42.78518,-16.07607 -32.17669,-70.04658c0,0 -30.50587,8.71203 -37.91993,18.82212z"/>
  <path id="svg_50" fill="#5f5470" d="m281.31331,652.42059l-6.74006,25.61222l23.59021,-4.718s-10.11009,-21.56819 -8.76208,-27.63424s-8.08807,6.74002 -8.08807,6.74002z"/>
  <path id="svg_51" fill="#ffc1cd" d="m300.18548,621.41631s61.33454,6.06605 78.18469,15.50214l12.80611,4.044s4.718,-1.348 14.82813,7.41407l52.57249,12.13214l40.44036,8.08807s37.07033,6.74006 39.76635,5.392s20.89418,10.11009 3.37,15.50213s-53.92048,-2.696 -53.92048,-2.696s-26.96024,-3.37 -33.02629,-1.348s-47.18042,-4.044 -47.18042,-4.044l-40.44035,2.696s-6.74006,-10.11009 -24.26422,-6.74006c-12.5054,2.40488 -34.278,-1.36837 -45.72325,-3.72686a11.37974,11.37974 0 0 1 -8.899,-9.06009l-4.01625,-21.58736l15.50213,-21.56818z"/>
  <path id="svg_52" opacity="0.05" d="m300.18548,621.41631s61.33454,6.06605 78.18469,15.50214l12.80611,4.044s4.718,-1.348 14.82813,7.41407l52.57249,12.13214l40.44036,8.08807s37.07033,6.74006 39.76635,5.392s20.89418,10.11009 3.37,15.50213s-53.92048,-2.696 -53.92048,-2.696s-26.96024,-3.37 -33.02629,-1.348s-47.18042,-4.044 -47.18042,-4.044l-40.44035,2.696s-6.74006,-10.11009 -24.26422,-6.74006c-12.5054,2.40488 -34.278,-1.36837 -45.72325,-3.72686a11.37974,11.37974 0 0 1 -8.899,-9.06009l-4.01625,-21.58736l15.50213,-21.56818z"/>
  <path id="svg_53" opacity="0.1" d="m168.0129,497.17678a37.13823,37.13823 0 0 1 -35.14943,7.33994a34.21448,34.21448 0 0 0 -3.87553,-9.13952c-9.43609,-15.50214 39.76635,-8.76208 39.76635,-8.76208a65.06764,65.06764 0 0 0 -0.74139,10.56166z"/>
  <circle id="svg_54" fill="#ffc1cd" r="37.07033" cy="467.74295" cx="143.81609"/>
  <path id="svg_55" opacity="0.1" d="m128.31396,522.33744s28.30825,15.50213 29.65626,25.61222s-4.044,22.2422 -4.044,22.2422s12.80611,76.83668 28.98225,82.22873l43.13638,-41.78837l36.39633,-16.17615s-21.5682,-1.348 -23.59021,-21.56819s2.696,-26.96024 -21.56819,-36.39632s-37.40733,-20.55718 -37.40733,-20.55718l-6.26571,1.581l32.21493,16.95419s18.19817,10.7841 -28.98225,2.696l-44.4844,-16.17615l-4.04406,1.34802z"/>
  <path id="svg_56" fill="#ff808c" d="m127.63995,520.98942s28.30825,15.50214 29.65627,25.61223s-4.044,22.2422 -4.044,22.2422s12.80611,76.83668 28.98226,82.22872l43.13638,-41.78837l36.39632,-16.17614s-21.56819,-1.348 -23.59021,-21.56819s2.696,-26.96024 -21.56819,-36.39632s-37.40733,-20.55718 -37.40733,-20.55718l-6.2657,1.581l32.21493,16.95419s18.19816,10.7841 -28.98226,2.696l-44.48439,-16.17614l-4.04408,1.348z"/>
  <path id="svg_57" opacity="0.1" d="m137.75004,526.38147s-27.63424,-10.11009 -20.89418,22.2422s41.78837,88.29478 41.78837,88.29478l82.22872,-28.30825s25.61223,-19.54617 18.87217,-21.56819s-42.46237,10.78409 -42.46237,10.78409l-48.52843,7.41407l-11.4581,-32.35229s10.78409,-7.41406 7.41406,-16.85015q-0.05055,-0.14154 -0.1019,-0.28367a52.13415,52.13415 0 0 0 -25.77894,-28.83289l-1.0794,-0.5397z"/>
  <path id="svg_58" fill="#ffc1cd" d="m136.40203,525.03346s-27.63424,-10.11009 -20.89418,22.2422s41.78837,88.29478 41.78837,88.29478l82.22868,-28.30825s25.61223,-19.54618 18.87217,-21.56819s-42.46238,10.78409 -42.46238,10.78409l-48.52843,7.41407l-11.4581,-32.35229s10.7841,-7.41407 7.41407,-16.85015q-0.05055,-0.14154 -0.1019,-0.28367a52.13415,52.13415 0 0 0 -25.77894,-28.83289l-1.07936,-0.5397z"/>
  <path id="svg_59" opacity="0.1" d="m138.97835,414.58115a28.43854,28.43854 0 0 0 -9.8598,-1.03223a28.9335,28.9335 0 0 0 -8.97274,2.864a85.86024,85.86024 0 0 0 -12.963,7.48984c-2.75363,1.9298 -5.45181,4.05265 -8.62891,5.15385c-4.76495,1.65156 -10.27776,0.88423 -14.66809,3.36562c-6.15279,3.47753 -7.52792,11.81539 -6.61937,18.82428s3.3947,13.99361 2.28935,20.97417c-1.65419,10.44656 -10.71385,17.867 -19.03723,24.39295c-2.621,2.055 -5.43426,4.4679 -5.8366,7.77405c-0.25166,2.06793 0.5072,4.106 1.1411,6.09038a51.7505,51.7505 0 0 1 -0.51994,33.34543a46.60506,46.60506 0 0 1 -21.76738,25.0733c-3.82593,1.99805 -8.468,4.03922 -9.3641,8.26141c-1.13766,5.36025 4.63466,9.51247 9.77442,11.41235a68.02928,68.02928 0 0 0 12.94393,3.38106c3.88321,0.61445 8.03489,0.85413 11.57861,-0.84849c4.12368,-1.98127 6.63892,-6.185 8.81826,-10.20754c8.48509,-15.6613 18.90151,-23.33961 24.39154,-40.28459c1.18409,-3.65469 3.07237,-8.00235 6.89627,-8.37195c2.39164,-0.23117 4.5537,1.27676 6.58666,2.55756c9.80819,6.17935 20.11,-0.74524 29.23962,-7.88915c2.11249,-1.653 3.91975,-3.72717 6.27142,-5.01741c4.99568,-2.74087 12.27153,-1.957 15.26631,-6.80472a13.46844,13.46844 0 0 0 1.43394,-4.09371c1.22753,-5.27028 2.45338,-10.80308 1.035,-16.02524c-1.31243,-4.83222 -4.73473,-8.79307 -6.75118,-13.37638s-2.13246,-10.846 1.98753,-13.69176c1.23516,-0.85315 2.72138,-1.29439 3.93658,-2.17573c3.54076,-2.568 3.62051,-7.69812 3.60075,-12.072a6.431,6.431 0 0 1 0.53868,-3.15849a7.58075,7.58075 0 0 1 2.49334,-2.28917a24.53453,24.53453 0 0 0 8.8119,-10.88342c1.78558,-4.817 -2.78768,-6.99717 -6.44118,-9.70437a78.05949,78.05949 0 0 0 -27.60569,-13.0339z"/>
  <path id="svg_60" fill="#333333" d="m138.30434,413.90714a28.43851,28.43851 0 0 0 -9.8598,-1.03222a28.933,28.933 0 0 0 -8.97273,2.864a85.85969,85.85969 0 0 0 -12.963,7.48983c-2.75364,1.9298 -5.45181,4.05265 -8.62892,5.15386c-4.76494,1.65156 -10.27776,0.88423 -14.66809,3.36562c-6.15279,3.47752 -7.52792,11.81538 -6.61937,18.82427s3.3947,13.99361 2.28935,20.97417c-1.65418,10.44657 -10.71384,17.867 -19.03723,24.393c-2.621,2.055 -5.43425,4.4679 -5.8366,7.774c-0.25166,2.06793 0.50721,4.106 1.14111,6.09038a51.75057,51.75057 0 0 1 -0.51995,33.34543a46.605,46.605 0 0 1 -21.76738,25.0733c-3.82592,1.99805 -8.468,4.03922 -9.36409,8.26141c-1.13767,5.36026 4.63465,9.51248 9.77441,11.41235a68.02883,68.02883 0 0 0 12.94394,3.38106c3.8832,0.61446 8.03489,0.85414 11.5786,-0.84849c4.12368,-1.98127 6.63892,-6.185 8.81827,-10.20754c8.48509,-15.66129 18.9015,-23.3396 24.39153,-40.28459c1.18409,-3.65469 3.07238,-8.00235 6.89628,-8.37195c2.39164,-0.23116 4.55369,1.27676 6.58665,2.55756c9.8082,6.17935 20.11,-0.74524 29.23963,-7.88914c2.11248,-1.653 3.91975,-3.72717 6.27142,-5.01741c4.99567,-2.74087 12.27152,-1.957 15.2663,-6.80472a13.4685,13.4685 0 0 0 1.43394,-4.09372c1.22753,-5.27028 2.45338,-10.80307 1.035,-16.02524c-1.31243,-4.83222 -4.73473,-8.79306 -6.75118,-13.37637s-2.13246,-10.846 1.98754,-13.69177c1.23515,-0.85315 2.72137,-1.29439 3.93657,-2.17572c3.54076,-2.568 3.62052,-7.69813 3.60075,-12.072a6.43105,6.43105 0 0 1 0.53869,-3.15849a7.58077,7.58077 0 0 1 2.49334,-2.28917a24.53447,24.53447 0 0 0 8.81189,-10.88342c1.78559,-4.817 -2.78768,-6.99717 -6.44118,-9.70436a78.05934,78.05934 0 0 0 -27.60569,-13.03392z"/>
  <path id="svg_61" fill="#ffc1cd" d="m452.17382,709.37409c-18.29927,3.862 -71.694,2.22421 -79.5327,-4.044c-11.9973,-9.59783 -9.04515,-18.124 -8.24983,-19.88317l-0.17524,0s6.74006,-16.17615 0,-28.30825c0,0 -0.674,-14.82813 -14.82814,-26.28624s-29.65626,-43.81038 -29.65626,-43.81038l-8.08807,16.85015s-12.159,36.99619 -24.76972,53.42172a26.18621,26.18621 0 0 0 -5.0146,11.11435c-0.83577,4.45517 -3.72053,10.06965 -12.67806,11.6266l-0.46506,0.08088a33.41618,33.41618 0 0 1 -33.04649,-14.02607c-6.03247,-8.68546 -12.8653,-20.7413 -14.41077,-32.48387a28.55587,28.55587 0 0 1 6.61235,-22.15787l0.0743,-0.08759c14.51807,-17.15346 64.85283,-76.15592 72.914,-79.60683c0,0 36.39632,-35.04831 50.55044,12.13211s18.87217,61.33454 18.87217,61.33454s16.92428,30.22915 21.56819,40.44036c4.79892,10.55491 24.763,36.88158 26.79174,39.54391c1.85351,1.26714 19.69443,13.36555 25.44372,13.36555c2.54098,0 21.27159,8.00045 8.08803,10.7841z"/>
  <g id="svg_62" opacity="0.05">
   <path id="svg_63" d="m366.97427,666.63613c0.57223,-5.23885 0.25987,-11.479 -2.75822,-16.91157c0,0 -0.674,-14.82813 -14.82814,-26.28623s-29.65626,-43.81039 -29.65626,-43.81039l-8.08807,16.85015s-12.159,36.9962 -24.76972,53.42172a26.18627,26.18627 0 0 0 -5.0146,11.11435c-0.83577,4.45517 -3.72053,10.06965 -12.67806,11.6266l-0.46506,0.08088a33.41619,33.41619 0 0 1 -33.04649,-14.02606c-5.96564,-8.58922 -12.70512,-20.47408 -14.34863,-32.09291a27.98619,27.98619 0 0 0 -0.06212,7.69709c1.54544,11.74258 8.37826,23.79841 14.41075,32.48389a33.41619,33.41619 0 0 0 33.04649,14.02606l0.46506,-0.08087c8.95753,-1.557 11.84229,-7.17144 12.67806,-11.62661a26.18627,26.18627 0 0 1 5.0146,-11.11435c12.61067,-16.42552 24.76972,-53.42172 24.76972,-53.42172l8.08807,-16.85015s15.50214,32.35229 29.65626,43.81039s14.82814,26.28623 14.82814,26.28623a24.08141,24.08141 0 0 1 2.75822,8.8235z"/>
  </g>
  <path id="svg_64" opacity="0.05" d="m191.33352,579.29094s28.98225,-0.674 26.96023,-10.11009"/>
  <path id="svg_65" fill="#eed1d7" d="m666.655,612.96122s45,-31 89,-20s11,49 11,49l-100,-29z"/>
  <path id="svg_66" fill="#ccb2bb" d="m648.655,592.96122s44,-19 74,1s90,30 90,30"/>
 </g>
</svg>